<?xml version="1.0" encoding="utf-8"?><svg xmlns="http://www.w3.org/2000/svg" xmlns:xlink="http://www.w3.org/1999/xlink"><symbol viewBox="0 0 18 21" id="a" xmlns="http://www.w3.org/2000/svg"><path d="M0.0131531 15.885C0.0131531 12.3578 3.54385 10.6709 9.83771 8.83065C9.83771 7.45046 9.99122 6.37698 9.99122 5.76356C9.99122 2.69647 8.91666 2.38976 7.53508 2.38976C5.69297 2.38976 5.23245 3.30989 4.61842 5.15014C4.3114 6.53033 3.23683 7.29711 2.16227 7.29711C1.08771 7.29711 0.320172 6.53033 0.320172 5.45685C0.320172 4.84343 0.473678 4.23001 1.24122 3.46324C2.16227 2.54311 5.23245 0.396149 9.07017 0.396149C12.6009 0.396149 13.9824 1.9297 13.9824 5.61021C13.9824 7.29711 13.8289 9.75078 13.8289 12.8179C13.8289 15.4249 13.9825 16.9584 15.057 16.9584C15.671 16.9584 15.8246 16.8051 16.2851 16.345C16.4386 16.1917 16.5921 16.1917 16.7456 16.1917C17.0526 16.1917 17.3596 16.4984 17.3596 16.9584C17.3596 17.1118 17.2061 17.4185 17.2061 17.5719C16.5921 18.3386 14.9035 20.1789 13.2149 20.1789C11.8333 20.1789 10.7588 19.5655 10.1447 17.4185C8.76315 18.9521 6.61403 20.1789 4.15789 20.1789C1.24122 19.7188 0.0131531 18.0319 0.0131531 15.885ZM6.30701 16.9584C7.53508 16.9584 8.91666 15.885 9.83771 15.1182C9.6842 13.738 9.68421 12.6645 9.68421 11.8977C9.68421 11.2843 9.68421 10.8243 9.68421 10.0575C5.69298 11.591 4.00438 12.3578 4.00438 14.6581C4.15789 16.4984 5.38596 16.9584 6.30701 16.9584Z"/></symbol><symbol viewBox="0 0 22 33" id="b" xmlns="http://www.w3.org/2000/svg"><path d="M6.02634 30.4185C4.95178 31.7987 4.33773 32.2588 3.8772 32.2588C3.41668 32.2588 3.10966 32.1054 3.10966 31.0319C3.10966 28.5783 3.26318 22.7508 3.26318 19.6837V8.48881C3.26318 5.42172 3.26316 5.26836 1.88158 4.65494C0.807023 4.19488 0.346497 4.04152 0.346497 3.58146C0.346497 2.96804 0.96055 2.81469 1.42108 2.66133C2.80266 2.20127 4.03071 1.89456 5.7193 1.12779C6.02632 0.974431 6.48687 0.821075 6.79388 0.821075C7.25441 0.821075 7.56143 0.97443 7.56143 1.7412C7.56143 3.27475 7.25439 4.65494 7.25439 14.7763C8.63597 13.5495 10.4781 13.0894 12.3202 13.0894C17.079 13.0894 21.0702 16.77 21.0702 22.2907C21.0702 29.345 15.6974 32.7188 11.3991 32.7188C9.71055 32.7188 7.56143 32.5655 6.02634 30.4185ZM10.7851 15.3898C9.0965 15.3898 7.1009 16.4632 7.1009 17.9968V25.9712C7.1009 29.1917 8.943 30.7252 11.2456 30.7252C14.6228 30.7252 16.4649 27.8115 16.4649 24.2843C16.4649 17.8434 13.5483 15.3898 10.7851 15.3898Z"/></symbol><symbol viewBox="0 0 15 19" id="delimiter" xmlns="http://www.w3.org/2000/svg"><path d="M14.7105 1.2364C14.864 1.38976 14.864 1.54311 14.7105 1.69647L2.27631 18.7188C2.1228 18.8722 1.96929 19.0255 1.81578 18.8722L1.04824 18.2588C0.894728 18.1054 0.894728 17.9521 1.04824 17.7987L13.3289 0.929695C13.4824 0.622986 13.636 0.622986 13.7895 0.622986L14.7105 1.2364Z"/></symbol><symbol viewBox="0 0 18 20" id="e" xmlns="http://www.w3.org/2000/svg"><path d="M0.324585 10.0575C0.324585 5.15015 3.54828 0.242798 9.68863 0.242798C14.6009 0.242798 17.3641 4.53673 17.3641 7.60382C17.3641 8.37059 16.9035 8.67731 16.136 8.67731H4.92985C4.92985 14.3514 8.00002 17.1118 10.6097 17.1118C12.6053 17.1118 14.1404 16.1917 15.522 14.9648C16.136 14.5048 16.443 14.0447 16.9035 14.0447C17.3641 14.0447 17.6711 14.3514 17.6711 14.8115C17.6711 15.4249 17.2105 16.0383 16.75 16.6517C15.6755 17.8786 13.5264 19.8722 9.68863 19.8722C3.54828 19.7188 0.324585 15.4249 0.324585 10.0575ZM11.8377 6.53034C12.4518 6.53034 12.6053 6.37699 12.6053 5.61021C12.6053 4.07667 11.3772 2.08305 8.92109 2.08305C6.77196 2.08305 5.08336 3.92331 4.92985 6.83705L11.8377 6.53034Z"/></symbol><symbol viewBox="0 0 33 21" id="m" xmlns="http://www.w3.org/2000/svg"><path d="M1.43859 20.1054C0.978063 20.1054 0.824554 20.1054 0.824554 19.1853C0.824554 18.5719 0.978063 18.2652 1.43859 18.2652L2.20613 18.1118C2.82017 17.9585 2.97368 17.8051 2.97368 16.5783L3.12719 9.52396C3.12719 5.23003 2.97368 4.76997 1.5921 4.15655C0.978063 4.0032 0.824554 3.84984 0.824554 3.54313C0.824554 3.08307 1.13157 2.92971 1.89912 2.62301C2.66666 2.3163 3.74122 1.85623 4.20175 1.54952C5.42982 1.08946 6.04385 0.629395 6.50438 0.629395C6.96491 0.782749 7.27192 1.08946 7.27192 2.00959V4.61661C7.88596 3.38978 8.6535 2.62301 9.88157 1.85623C10.8026 1.39617 12.0307 1.08946 13.2588 1.08946C16.0219 1.08946 17.864 2.62301 18.4781 4.92333H18.6316C19.2456 3.69649 20.0131 2.62301 21.3947 1.85623C22.3158 1.39617 23.6974 1.08946 24.9254 1.08946C27.8421 1.08946 29.5307 2.3163 30.1447 4.76997C30.4517 6.30352 30.4517 7.83706 30.4517 10.4441V16.7316C30.4517 17.8051 30.6053 18.1118 31.3728 18.1118L32.1403 18.2652C32.7544 18.2652 32.7544 18.4185 32.7544 19.1853C32.7544 19.9521 32.6009 20.1054 32.1403 20.1054C30.9123 19.9521 29.6842 19.9521 28.6096 19.9521C27.5351 19.9521 25.5395 20.1054 24.3114 20.1054C23.8509 20.1054 23.6974 19.9521 23.6974 19.1853C23.6974 18.4185 23.8509 18.2652 24.4649 18.2652L25.5395 18.1118C26.1535 18.1118 26.307 17.8051 26.307 16.7316V11.2109C26.307 8.75719 26.307 7.22364 25.8465 5.99681C25.386 4.61661 24.3114 3.84984 22.9298 3.84984C21.2412 3.84984 19.0921 5.07668 19.0921 9.37061V16.7316C19.0921 17.8051 19.2456 18.1118 20.0132 18.1118L20.4737 18.2652C21.0877 18.4185 21.0877 18.4185 21.0877 19.1853C21.0877 19.9521 20.9342 20.1054 20.4737 20.1054C19.2456 19.9521 18.0175 19.9521 16.943 19.9521C15.8684 19.9521 14.0263 20.1054 12.9517 20.1054C12.4912 20.1054 12.1842 19.9521 12.1842 19.1853C12.1842 18.4185 12.3377 18.2652 12.9517 18.2652L13.8728 18.1118C14.3333 18.1118 14.6403 17.8051 14.6403 16.7316V11.2109C14.6403 8.75719 14.6403 7.22364 14.1798 5.99681C13.5658 4.61661 12.6447 3.84984 11.2632 3.84984C9.57455 3.84984 7.42543 5.07668 7.42543 9.37061L7.57894 16.5783C7.57894 17.6518 7.57894 17.9585 8.19298 18.1118L8.80701 18.2652C9.42105 18.5719 9.42105 18.7252 9.42105 19.3387C9.42105 20.1054 9.26754 20.4121 8.80701 20.2588C7.57894 20.1054 6.9649 20.1054 5.42982 20.1054C3.89473 19.9521 2.66666 20.1054 1.43859 20.1054Z"/></symbol><symbol viewBox="0 0 21 21" id="n" xmlns="http://www.w3.org/2000/svg"><path d="M0.925442 20.1054C0.464915 20.1054 0.311393 20.1054 0.311393 19.1853C0.311393 18.5719 0.618424 18.2652 0.925442 18.2652L1.53947 18.1118C2.1535 17.9585 2.30701 17.8051 2.30701 16.5783L2.46053 9.52396C2.46053 5.38339 2.46052 4.76997 0.771924 4.15655C0.311397 4.0032 0.157898 3.84984 0.157898 3.54313C0.157898 3.08307 0.618429 2.92971 1.38597 2.62301C2.15352 2.3163 3.22808 1.70288 3.6886 1.54952C4.91667 0.936103 5.22367 0.629395 5.6842 0.629395C6.29823 0.629395 6.45174 0.936104 6.45174 1.85623V4.30991C7.06578 3.08307 7.98684 2.3163 9.21491 1.70288C10.136 1.24281 11.364 0.936103 12.5921 0.936103C15.2017 0.936103 17.1974 2.46965 17.8114 4.76997C18.1184 6.30352 18.2719 7.68371 18.2719 10.2907V16.5783C18.2719 17.6518 18.4254 17.9585 19.0395 17.9585L19.807 18.1118C20.4211 18.1118 20.5746 18.2652 20.5746 19.0319C20.5746 19.7987 20.4211 19.9521 19.807 19.9521C18.579 19.7987 17.3509 19.7987 16.2763 19.7987C15.2018 19.7987 13.5132 19.9521 12.2851 19.9521C11.8246 19.9521 11.5175 19.7987 11.5175 19.0319C11.5175 18.2652 11.8246 18.1118 12.2851 18.1118L13.2061 17.9585C13.9737 17.8051 13.9737 17.6518 13.9737 16.5783V11.0575C13.9737 8.60384 13.9737 7.07029 13.5132 5.84345C13.0526 4.46326 11.8246 3.69649 10.443 3.69649C8.75438 3.69649 6.45175 4.92332 6.60526 9.21725L6.75878 16.4249C6.75878 17.4984 6.75877 17.8051 7.37281 17.9585L7.98683 18.1118C8.60087 18.2652 8.60088 18.4185 8.60088 19.0319C8.60088 19.7987 8.44736 20.1054 7.98683 19.9521C6.75876 19.7987 6.29824 19.7987 4.60964 19.7987C3.07456 19.9521 2.15351 20.1054 0.925442 20.1054Z"/></symbol><symbol viewBox="0 0 16 21" id="r" xmlns="http://www.w3.org/2000/svg"><path d="M0.614037 20.1054C0.153511 20.1054 0 19.9521 0 19.1853C0 18.4185 0.153509 18.2652 0.767544 18.2652L1.99561 18.1118C2.76315 18.1118 2.76315 17.6518 2.76315 16.885L2.91667 9.37061C2.91667 5.38339 2.76316 5.23003 1.38158 4.61661C0.767546 4.46326 0.614037 4.3099 0.614037 3.84984C0.614037 3.38978 0.767541 3.23642 1.68859 2.92971C2.45614 2.623 3.07018 2.31629 3.68421 2.00959C4.60527 1.54952 5.83333 0.629395 6.44736 0.629395C6.90789 0.629395 7.21491 0.936104 7.21491 1.85623C7.21491 2.46965 7.21491 3.54313 7.21491 4.76997H7.36841C9.05701 1.70288 10.5921 1.08946 12.2807 1.08946C13.8158 1.08946 15.0439 1.70288 15.0439 2.92971C15.0439 4.15655 14.4298 5.53674 13.0482 5.53674C12.4342 5.53674 11.9737 5.38339 11.3597 5.07668C11.0526 4.92332 10.5921 4.61661 9.82456 4.61661C8.44298 4.61661 7.21491 6.61023 7.21491 9.37061V16.885C7.21491 17.8051 7.21491 18.1118 8.44298 18.1118L9.51754 18.2652C10.1316 18.2652 10.2851 18.5719 10.2851 19.1853C10.2851 19.9521 10.1316 20.1054 9.67105 20.1054C8.59648 19.9521 6.44737 19.9521 5.37281 19.9521C3.99123 19.9521 1.84211 20.1054 0.614037 20.1054Z"/></symbol><symbol viewBox="0 0 14 25" id="t" xmlns="http://www.w3.org/2000/svg"><path d="M2.98684 19.5048L3.14035 8.30989H1.60526C0.991222 8.30989 0.530701 8.15654 0.530701 7.54312C0.530701 7.08305 1.14474 6.46963 1.91228 5.70286C2.98684 4.62938 3.44737 4.16931 5.90351 0.948867C6.21053 0.642158 6.51754 0.335449 6.97807 0.335449C7.28508 0.335449 7.5921 0.488803 7.5921 0.948867V5.70286C8.82017 5.70286 11.4298 5.54951 12.8114 5.54951C13.4254 5.54951 13.579 6.00957 13.2719 6.62299L12.6579 8.00318C12.5044 8.30989 12.3509 8.46325 11.8904 8.46325H7.28509V17.3578C7.28509 20.885 7.28509 22.4185 9.74123 22.4185C10.9693 22.4185 11.7368 21.6517 12.3509 21.6517C12.8114 21.6517 12.9649 21.9585 12.9649 22.4185C12.9649 22.7252 12.6579 23.0319 12.3509 23.3386C11.5833 23.9521 9.89474 24.7188 7.89913 24.7188C5.5965 24.7188 2.83333 23.492 2.98684 19.5048Z"/></symbol></svg>