<svg width="33" height="21" viewBox="0 0 33 21" fill="none" xmlns="http://www.w3.org/2000/svg">
<path d="M1.43859 20.1054C0.978063 20.1054 0.824554 20.1054 0.824554 19.1853C0.824554 18.5719 0.978063 18.2652 1.43859 18.2652L2.20613 18.1118C2.82017 17.9585 2.97368 17.8051 2.97368 16.5783L3.12719 9.52396C3.12719 5.23003 2.97368 4.76997 1.5921 4.15655C0.978063 4.0032 0.824554 3.84984 0.824554 3.54313C0.824554 3.08307 1.13157 2.92971 1.89912 2.62301C2.66666 2.3163 3.74122 1.85623 4.20175 1.54952C5.42982 1.08946 6.04385 0.629395 6.50438 0.629395C6.96491 0.782749 7.27192 1.08946 7.27192 2.00959V4.61661C7.88596 3.38978 8.6535 2.62301 9.88157 1.85623C10.8026 1.39617 12.0307 1.08946 13.2588 1.08946C16.0219 1.08946 17.864 2.62301 18.4781 4.92333H18.6316C19.2456 3.69649 20.0131 2.62301 21.3947 1.85623C22.3158 1.39617 23.6974 1.08946 24.9254 1.08946C27.8421 1.08946 29.5307 2.3163 30.1447 4.76997C30.4517 6.30352 30.4517 7.83706 30.4517 10.4441V16.7316C30.4517 17.8051 30.6053 18.1118 31.3728 18.1118L32.1403 18.2652C32.7544 18.2652 32.7544 18.4185 32.7544 19.1853C32.7544 19.9521 32.6009 20.1054 32.1403 20.1054C30.9123 19.9521 29.6842 19.9521 28.6096 19.9521C27.5351 19.9521 25.5395 20.1054 24.3114 20.1054C23.8509 20.1054 23.6974 19.9521 23.6974 19.1853C23.6974 18.4185 23.8509 18.2652 24.4649 18.2652L25.5395 18.1118C26.1535 18.1118 26.307 17.8051 26.307 16.7316V11.2109C26.307 8.75719 26.307 7.22364 25.8465 5.99681C25.386 4.61661 24.3114 3.84984 22.9298 3.84984C21.2412 3.84984 19.0921 5.07668 19.0921 9.37061V16.7316C19.0921 17.8051 19.2456 18.1118 20.0132 18.1118L20.4737 18.2652C21.0877 18.4185 21.0877 18.4185 21.0877 19.1853C21.0877 19.9521 20.9342 20.1054 20.4737 20.1054C19.2456 19.9521 18.0175 19.9521 16.943 19.9521C15.8684 19.9521 14.0263 20.1054 12.9517 20.1054C12.4912 20.1054 12.1842 19.9521 12.1842 19.1853C12.1842 18.4185 12.3377 18.2652 12.9517 18.2652L13.8728 18.1118C14.3333 18.1118 14.6403 17.8051 14.6403 16.7316V11.2109C14.6403 8.75719 14.6403 7.22364 14.1798 5.99681C13.5658 4.61661 12.6447 3.84984 11.2632 3.84984C9.57455 3.84984 7.42543 5.07668 7.42543 9.37061L7.57894 16.5783C7.57894 17.6518 7.57894 17.9585 8.19298 18.1118L8.80701 18.2652C9.42105 18.5719 9.42105 18.7252 9.42105 19.3387C9.42105 20.1054 9.26754 20.4121 8.80701 20.2588C7.57894 20.1054 6.9649 20.1054 5.42982 20.1054C3.89473 19.9521 2.66666 20.1054 1.43859 20.1054Z" fill="black"/>
</svg>
