<svg width="21" height="21" viewBox="0 0 21 21" fill="none" xmlns="http://www.w3.org/2000/svg">
<path d="M0.925442 20.1054C0.464915 20.1054 0.311393 20.1054 0.311393 19.1853C0.311393 18.5719 0.618424 18.2652 0.925442 18.2652L1.53947 18.1118C2.1535 17.9585 2.30701 17.8051 2.30701 16.5783L2.46053 9.52396C2.46053 5.38339 2.46052 4.76997 0.771924 4.15655C0.311397 4.0032 0.157898 3.84984 0.157898 3.54313C0.157898 3.08307 0.618429 2.92971 1.38597 2.62301C2.15352 2.3163 3.22808 1.70288 3.6886 1.54952C4.91667 0.936103 5.22367 0.629395 5.6842 0.629395C6.29823 0.629395 6.45174 0.936104 6.45174 1.85623V4.30991C7.06578 3.08307 7.98684 2.3163 9.21491 1.70288C10.136 1.24281 11.364 0.936103 12.5921 0.936103C15.2017 0.936103 17.1974 2.46965 17.8114 4.76997C18.1184 6.30352 18.2719 7.68371 18.2719 10.2907V16.5783C18.2719 17.6518 18.4254 17.9585 19.0395 17.9585L19.807 18.1118C20.4211 18.1118 20.5746 18.2652 20.5746 19.0319C20.5746 19.7987 20.4211 19.9521 19.807 19.9521C18.579 19.7987 17.3509 19.7987 16.2763 19.7987C15.2018 19.7987 13.5132 19.9521 12.2851 19.9521C11.8246 19.9521 11.5175 19.7987 11.5175 19.0319C11.5175 18.2652 11.8246 18.1118 12.2851 18.1118L13.2061 17.9585C13.9737 17.8051 13.9737 17.6518 13.9737 16.5783V11.0575C13.9737 8.60384 13.9737 7.07029 13.5132 5.84345C13.0526 4.46326 11.8246 3.69649 10.443 3.69649C8.75438 3.69649 6.45175 4.92332 6.60526 9.21725L6.75878 16.4249C6.75878 17.4984 6.75877 17.8051 7.37281 17.9585L7.98683 18.1118C8.60087 18.2652 8.60088 18.4185 8.60088 19.0319C8.60088 19.7987 8.44736 20.1054 7.98683 19.9521C6.75876 19.7987 6.29824 19.7987 4.60964 19.7987C3.07456 19.9521 2.15351 20.1054 0.925442 20.1054Z" fill="black"/>
</svg>
