<?xml version="1.0" encoding="utf-8"?><svg viewBox="0 0 33 33" xmlns="http://www.w3.org/2000/svg" xmlns:xlink="http://www.w3.org/1999/xlink"><style>:root>svg{display:none}:root>svg:target{display:block}</style><svg fill="none" viewBox="0 0 18 21" id="a" xmlns="http://www.w3.org/2000/svg"><path d="M.013 15.885c0-3.527 3.53-5.214 9.825-7.054 0-1.38.153-2.454.153-3.067 0-3.068-1.074-3.374-2.456-3.374-1.842 0-2.303.92-2.917 2.76-.307 1.38-1.381 2.147-2.456 2.147C1.088 7.297.32 6.53.32 5.457c0-.614.154-1.227.921-1.994.921-.92 3.991-3.067 7.83-3.067 3.53 0 4.911 1.534 4.911 5.214 0 1.687-.153 4.14-.153 7.208 0 2.607.153 4.14 1.228 4.14.614 0 .768-.153 1.228-.613.154-.153.307-.153.46-.153.308 0 .615.306.615.766 0 .154-.154.46-.154.614-.614.767-2.303 2.607-3.991 2.607-1.382 0-2.456-.613-3.07-2.76-1.382 1.533-3.531 2.76-5.987 2.76-2.917-.46-4.145-2.147-4.145-4.294Zm6.294 1.073c1.228 0 2.61-1.073 3.53-1.84-.153-1.38-.153-2.454-.153-3.22v-1.84c-3.991 1.533-5.68 2.3-5.68 4.6.154 1.84 1.382 2.3 2.303 2.3Z" fill="#000"/></svg><svg fill="none" viewBox="0 0 22 33" id="b" xmlns="http://www.w3.org/2000/svg"><path d="M6.026 30.419c-1.074 1.38-1.688 1.84-2.149 1.84-.46 0-.767-.154-.767-1.227 0-2.454.153-8.281.153-11.348V8.489c0-3.067 0-3.22-1.381-3.834C.807 4.195.346 4.042.346 3.58c0-.613.615-.766 1.075-.92 1.382-.46 2.61-.766 4.298-1.533C6.026.974 6.487.82 6.794.82c.46 0 .767.153.767.92 0 1.534-.307 2.914-.307 13.035 1.382-1.226 3.224-1.687 5.066-1.687 4.759 0 8.75 3.681 8.75 9.202 0 7.054-5.373 10.428-9.67 10.428-1.69 0-3.839-.154-5.374-2.3Zm4.76-15.03c-1.69 0-3.685 1.074-3.685 2.608v7.974c0 3.22 1.842 4.754 4.145 4.754 3.377 0 5.219-2.914 5.219-6.44 0-6.442-2.917-8.895-5.68-8.895Z" fill="#000"/></svg><svg fill="none" viewBox="0 0 15 19" id="delimiter" xmlns="http://www.w3.org/2000/svg"><path d="M14.71 1.236c.154.154.154.307 0 .46L2.277 18.72c-.153.153-.307.306-.46.153l-.768-.613c-.153-.154-.153-.307 0-.46L13.328.929c.154-.306.308-.306.462-.306l.92.613Z" fill="#000"/></svg><svg fill="none" viewBox="0 0 18 20" id="e" xmlns="http://www.w3.org/2000/svg"><path d="M.325 10.057C.325 5.15 3.548.243 9.689.243c4.912 0 7.675 4.294 7.675 7.36 0 .768-.46 1.074-1.228 1.074H4.93c0 5.674 3.07 8.435 5.68 8.435 1.995 0 3.53-.92 4.912-2.147.614-.46.921-.92 1.382-.92.46 0 .767.306.767.767 0 .613-.46 1.226-.921 1.84-1.075 1.227-3.224 3.22-7.061 3.22-6.14-.153-9.364-4.447-9.364-9.815ZM11.838 6.53c.614 0 .767-.153.767-.92a3.592 3.592 0 0 0-3.684-3.527c-2.149 0-3.838 1.84-3.991 4.754l6.908-.307Z" fill="#000"/></svg><svg fill="none" viewBox="0 0 33 21" id="m" xmlns="http://www.w3.org/2000/svg"><path d="M1.439 20.105c-.46 0-.614 0-.614-.92 0-.613.153-.92.614-.92l.767-.153c.614-.153.768-.307.768-1.534l.153-7.054c0-4.294-.153-4.754-1.535-5.367-.614-.154-.767-.307-.767-.614 0-.46.307-.613 1.074-.92.768-.307 1.842-.767 2.303-1.073C5.43 1.09 6.044.63 6.504.63c.46.153.768.46.768 1.38v2.607c.614-1.227 1.381-1.994 2.61-2.76.92-.46 2.149-.768 3.377-.768 2.763 0 4.605 1.534 5.22 3.834h.153c.614-1.227 1.381-2.3 2.763-3.067.92-.46 2.302-.767 3.53-.767 2.917 0 4.606 1.227 5.22 3.681.307 1.534.307 3.067.307 5.674v6.288c0 1.073.153 1.38.92 1.38l.768.153c.614 0 .614.154.614.92 0 .767-.153.92-.614.92-1.228-.153-2.456-.153-3.53-.153-1.075 0-3.07.153-4.299.153-.46 0-.614-.153-.614-.92 0-.766.154-.92.768-.92l1.075-.153c.614 0 .767-.307.767-1.38V11.21c0-2.454 0-3.987-.46-5.214-.461-1.38-1.536-2.147-2.917-2.147-1.689 0-3.838 1.227-3.838 5.52v7.362c0 1.073.154 1.38.921 1.38l.46.153c.615.154.615.154.615.92 0 .767-.154.92-.614.92-1.228-.153-2.457-.153-3.531-.153-1.075 0-2.917.153-3.991.153-.46 0-.768-.153-.768-.92 0-.766.154-.92.768-.92l.92-.153c.461 0 .768-.307.768-1.38V11.21c0-2.454 0-3.987-.46-5.214-.614-1.38-1.535-2.147-2.917-2.147-1.688 0-3.838 1.227-3.838 5.52l.154 7.208c0 1.074 0 1.38.614 1.534l.614.153c.614.307.614.46.614 1.074 0 .766-.153 1.073-.614.92-1.228-.154-1.842-.154-3.377-.154-1.535-.153-2.763 0-3.991 0Z" fill="#000"/></svg><svg fill="none" viewBox="0 0 21 21" id="n" xmlns="http://www.w3.org/2000/svg"><path d="M.925 20.105c-.46 0-.614 0-.614-.92 0-.613.307-.92.614-.92l.614-.153c.615-.153.768-.307.768-1.534l.154-7.054c0-4.14 0-4.754-1.69-5.367-.46-.154-.613-.307-.613-.614 0-.46.46-.613 1.228-.92.768-.307 1.842-.92 2.303-1.073C4.917.936 5.224.63 5.684.63c.614 0 .768.306.768 1.226V4.31c.614-1.227 1.535-1.994 2.763-2.607.921-.46 2.149-.767 3.377-.767 2.61 0 4.605 1.534 5.22 3.834.306 1.534.46 2.914.46 5.52v6.288c0 1.074.153 1.38.768 1.38l.767.154c.614 0 .768.153.768.92s-.154.92-.768.92c-1.228-.153-2.456-.153-3.53-.153-1.075 0-2.764.153-3.992.153-.46 0-.768-.153-.768-.92s.308-.92.768-.92l.921-.153c.768-.154.768-.307.768-1.38v-5.522c0-2.453 0-3.987-.46-5.214-.461-1.38-1.69-2.147-3.071-2.147-1.689 0-3.991 1.227-3.838 5.521l.154 7.208c0 1.073 0 1.38.614 1.534l.614.153c.614.153.614.307.614.92 0 .767-.154 1.073-.614.92C6.759 19.8 6.298 19.8 4.61 19.8c-1.535.153-2.456.306-3.685.306Z" fill="#000"/></svg><svg fill="none" viewBox="0 0 16 21" id="r" xmlns="http://www.w3.org/2000/svg"><path d="M.614 20.105c-.46 0-.614-.153-.614-.92 0-.766.154-.92.768-.92l1.228-.153c.767 0 .767-.46.767-1.227l.154-7.514c0-3.988-.154-4.141-1.535-4.754C.768 4.463.614 4.31.614 3.85s.154-.614 1.075-.92c.767-.307 1.381-.614 1.995-.92.921-.46 2.15-1.38 2.763-1.38.46 0 .768.306.768 1.226V4.77h.153c1.689-3.067 3.224-3.68 4.913-3.68 1.535 0 2.763.613 2.763 1.84s-.614 2.607-1.996 2.607c-.614 0-1.074-.154-1.688-.46-.307-.154-.768-.46-1.535-.46-1.382 0-2.61 1.993-2.61 4.754v7.514c0 .92 0 1.227 1.228 1.227l1.075.153c.614 0 .767.307.767.92 0 .767-.153.92-.614.92-1.075-.153-3.224-.153-4.298-.153-1.382 0-3.53.153-4.759.153Z" fill="#000"/></svg><svg fill="none" viewBox="0 0 14 25" id="t" xmlns="http://www.w3.org/2000/svg"><path d="M2.987 19.505 3.14 8.31H1.605c-.614 0-1.074-.153-1.074-.767 0-.46.614-1.073 1.381-1.84C2.987 4.629 3.447 4.169 5.904.949 6.21.642 6.518.335 6.978.335c.307 0 .614.154.614.614v4.754c1.228 0 3.838-.153 5.22-.153.613 0 .767.46.46 1.073l-.614 1.38c-.154.307-.307.46-.768.46H7.285v8.895c0 3.527 0 5.06 2.456 5.06 1.228 0 1.996-.766 2.61-.766.46 0 .614.306.614.767 0 .306-.307.613-.614.92-.768.613-2.456 1.38-4.452 1.38-2.303 0-5.066-1.227-4.912-5.214Z" fill="#000"/></svg></svg>