<svg width="18" height="21" viewBox="0 0 18 21" fill="none" xmlns="http://www.w3.org/2000/svg">
<path d="M0.0131531 15.885C0.0131531 12.3578 3.54385 10.6709 9.83771 8.83065C9.83771 7.45046 9.99122 6.37698 9.99122 5.76356C9.99122 2.69647 8.91666 2.38976 7.53508 2.38976C5.69297 2.38976 5.23245 3.30989 4.61842 5.15014C4.3114 6.53033 3.23683 7.29711 2.16227 7.29711C1.08771 7.29711 0.320172 6.53033 0.320172 5.45685C0.320172 4.84343 0.473678 4.23001 1.24122 3.46324C2.16227 2.54311 5.23245 0.396149 9.07017 0.396149C12.6009 0.396149 13.9824 1.9297 13.9824 5.61021C13.9824 7.29711 13.8289 9.75078 13.8289 12.8179C13.8289 15.4249 13.9825 16.9584 15.057 16.9584C15.671 16.9584 15.8246 16.8051 16.2851 16.345C16.4386 16.1917 16.5921 16.1917 16.7456 16.1917C17.0526 16.1917 17.3596 16.4984 17.3596 16.9584C17.3596 17.1118 17.2061 17.4185 17.2061 17.5719C16.5921 18.3386 14.9035 20.1789 13.2149 20.1789C11.8333 20.1789 10.7588 19.5655 10.1447 17.4185C8.76315 18.9521 6.61403 20.1789 4.15789 20.1789C1.24122 19.7188 0.0131531 18.0319 0.0131531 15.885ZM6.30701 16.9584C7.53508 16.9584 8.91666 15.885 9.83771 15.1182C9.6842 13.738 9.68421 12.6645 9.68421 11.8977C9.68421 11.2843 9.68421 10.8243 9.68421 10.0575C5.69298 11.591 4.00438 12.3578 4.00438 14.6581C4.15789 16.4984 5.38596 16.9584 6.30701 16.9584Z" fill="black"/>
</svg>
