<svg width="22" height="33" viewBox="0 0 22 33" fill="none" xmlns="http://www.w3.org/2000/svg">
<path d="M6.02634 30.4185C4.95178 31.7987 4.33773 32.2588 3.8772 32.2588C3.41668 32.2588 3.10966 32.1054 3.10966 31.0319C3.10966 28.5783 3.26318 22.7508 3.26318 19.6837V8.48881C3.26318 5.42172 3.26316 5.26836 1.88158 4.65494C0.807023 4.19488 0.346497 4.04152 0.346497 3.58146C0.346497 2.96804 0.96055 2.81469 1.42108 2.66133C2.80266 2.20127 4.03071 1.89456 5.7193 1.12779C6.02632 0.974431 6.48687 0.821075 6.79388 0.821075C7.25441 0.821075 7.56143 0.97443 7.56143 1.7412C7.56143 3.27475 7.25439 4.65494 7.25439 14.7763C8.63597 13.5495 10.4781 13.0894 12.3202 13.0894C17.079 13.0894 21.0702 16.77 21.0702 22.2907C21.0702 29.345 15.6974 32.7188 11.3991 32.7188C9.71055 32.7188 7.56143 32.5655 6.02634 30.4185ZM10.7851 15.3898C9.0965 15.3898 7.1009 16.4632 7.1009 17.9968V25.9712C7.1009 29.1917 8.943 30.7252 11.2456 30.7252C14.6228 30.7252 16.4649 27.8115 16.4649 24.2843C16.4649 17.8434 13.5483 15.3898 10.7851 15.3898Z" fill="black"/>
</svg>
