<svg width="18" height="20" viewBox="0 0 18 20" fill="none" xmlns="http://www.w3.org/2000/svg">
<path d="M0.324585 10.0575C0.324585 5.15015 3.54828 0.242798 9.68863 0.242798C14.6009 0.242798 17.3641 4.53673 17.3641 7.60382C17.3641 8.37059 16.9035 8.67731 16.136 8.67731H4.92985C4.92985 14.3514 8.00002 17.1118 10.6097 17.1118C12.6053 17.1118 14.1404 16.1917 15.522 14.9648C16.136 14.5048 16.443 14.0447 16.9035 14.0447C17.3641 14.0447 17.6711 14.3514 17.6711 14.8115C17.6711 15.4249 17.2105 16.0383 16.75 16.6517C15.6755 17.8786 13.5264 19.8722 9.68863 19.8722C3.54828 19.7188 0.324585 15.4249 0.324585 10.0575ZM11.8377 6.53034C12.4518 6.53034 12.6053 6.37699 12.6053 5.61021C12.6053 4.07667 11.3772 2.08305 8.92109 2.08305C6.77196 2.08305 5.08336 3.92331 4.92985 6.83705L11.8377 6.53034Z" fill="black"/>
</svg>
