<svg width="16" height="21" viewBox="0 0 16 21" fill="none" xmlns="http://www.w3.org/2000/svg">
<path d="M0.614037 20.1054C0.153511 20.1054 0 19.9521 0 19.1853C0 18.4185 0.153509 18.2652 0.767544 18.2652L1.99561 18.1118C2.76315 18.1118 2.76315 17.6518 2.76315 16.885L2.91667 9.37061C2.91667 5.38339 2.76316 5.23003 1.38158 4.61661C0.767546 4.46326 0.614037 4.3099 0.614037 3.84984C0.614037 3.38978 0.767541 3.23642 1.68859 2.92971C2.45614 2.623 3.07018 2.31629 3.68421 2.00959C4.60527 1.54952 5.83333 0.629395 6.44736 0.629395C6.90789 0.629395 7.21491 0.936104 7.21491 1.85623C7.21491 2.46965 7.21491 3.54313 7.21491 4.76997H7.36841C9.05701 1.70288 10.5921 1.08946 12.2807 1.08946C13.8158 1.08946 15.0439 1.70288 15.0439 2.92971C15.0439 4.15655 14.4298 5.53674 13.0482 5.53674C12.4342 5.53674 11.9737 5.38339 11.3597 5.07668C11.0526 4.92332 10.5921 4.61661 9.82456 4.61661C8.44298 4.61661 7.21491 6.61023 7.21491 9.37061V16.885C7.21491 17.8051 7.21491 18.1118 8.44298 18.1118L9.51754 18.2652C10.1316 18.2652 10.2851 18.5719 10.2851 19.1853C10.2851 19.9521 10.1316 20.1054 9.67105 20.1054C8.59648 19.9521 6.44737 19.9521 5.37281 19.9521C3.99123 19.9521 1.84211 20.1054 0.614037 20.1054Z" fill="black"/>
</svg>
