<svg width="14" height="25" viewBox="0 0 14 25" fill="none" xmlns="http://www.w3.org/2000/svg">
<path d="M2.98684 19.5048L3.14035 8.30989H1.60526C0.991222 8.30989 0.530701 8.15654 0.530701 7.54312C0.530701 7.08305 1.14474 6.46963 1.91228 5.70286C2.98684 4.62938 3.44737 4.16931 5.90351 0.948867C6.21053 0.642158 6.51754 0.335449 6.97807 0.335449C7.28508 0.335449 7.5921 0.488803 7.5921 0.948867V5.70286C8.82017 5.70286 11.4298 5.54951 12.8114 5.54951C13.4254 5.54951 13.579 6.00957 13.2719 6.62299L12.6579 8.00318C12.5044 8.30989 12.3509 8.46325 11.8904 8.46325H7.28509V17.3578C7.28509 20.885 7.28509 22.4185 9.74123 22.4185C10.9693 22.4185 11.7368 21.6517 12.3509 21.6517C12.8114 21.6517 12.9649 21.9585 12.9649 22.4185C12.9649 22.7252 12.6579 23.0319 12.3509 23.3386C11.5833 23.9521 9.89474 24.7188 7.89913 24.7188C5.5965 24.7188 2.83333 23.492 2.98684 19.5048Z" fill="black"/>
</svg>
